<svg width="97" height="100" viewBox="0 0 97 100" fill="none" xmlns="http://www.w3.org/2000/svg">
<path d="M0 0H96.242V100H0V0Z" fill="#F7DF1E"/>
<path d="M25.3058 83.567L32.6709 78.9358C34.0918 81.5534 35.3843 83.7682 38.4847 83.7682C41.4566 83.7682 43.3303 82.5602 43.3303 77.8618V45.9094H52.3746V77.9947C52.3746 87.728 46.8836 92.1583 38.8724 92.1583C31.6373 92.1583 27.4375 88.2648 25.3057 83.5662" fill="black"/>
<path d="M57.2866 82.5604L64.6508 78.13C66.5894 81.4196 69.109 83.8359 73.5663 83.8359C77.3138 83.8359 79.7035 81.8891 79.7035 79.204C79.7035 75.9819 77.2487 74.8407 73.114 72.9618L70.8535 71.9542C64.3282 69.0683 59.9996 65.4435 59.9996 57.791C59.9996 50.7428 65.1678 45.3724 73.2435 45.3724C78.9933 45.3724 83.1279 47.4535 86.0993 52.8908L79.0575 57.5894C77.5069 54.7032 75.8277 53.5623 73.2437 53.5623C70.5949 53.5623 68.9151 55.3075 68.9151 57.5894C68.9151 60.4088 70.5949 61.5502 74.4707 63.2956L76.7316 64.3024C84.4195 67.7261 88.7481 71.2162 88.7481 79.0697C88.7481 87.5281 82.3525 92.1594 73.7604 92.1594C65.3619 92.1594 59.9351 87.9978 57.2868 82.5604" fill="black"/>
</svg>
